<svg id="Layer_1" data-name="Layer 1" xmlns="http://www.w3.org/2000/svg" viewBox="0 0 474.12 458.7"><defs><style>.cls-1{fill:#3093f8;}.cls-2{fill:#7fc7f8;}.cls-3{fill:#242123;}</style></defs><path class="cls-1" d="M265.88,458.42c-.8.06-1.6.18-2.39.18-48.3,0-96.59.18-144.88-.27-19.38-.18-38.76-1.67-57-9.31-13.22-5.53-24.14-14-34.33-24.1C5.36,403.27.7,375.83.46,347.15,0,289.19.2,231.22.21,173.25c0-23.12-.22-46.26.5-69.36C1.33,84,4.53,64.34,16.07,47.52,33.18,22.59,56.44,6.38,87,3A531.62,531.62,0,0,1,140.65.15c38.34-.38,76.68,0,115,0-4.65,7.42-9.82,14.58-13.86,22.32-9.09,17.44-18.18,34.92-26.23,52.86-12.41,27.68-20.48,56.94-28.07,86.2-4.62,17.78-7,36.2-9.5,54.46-2.09,15.53-2.8,31.24-4.19,47.73h89.37c-1.82,34.36-3.61,67.94-5.42,102A293.46,293.46,0,0,1,170,356.08,318.09,318.09,0,0,1,88.11,322L77,337.17c56.12,33.09,116.36,49.23,180.42,47.29C260.29,409.43,263.08,433.92,265.88,458.42ZM141.58,90.07H112.12v72.49h29.46Z" transform="translate(-0.15 0.09)"/><path class="cls-2" d="M278,0c25.67,0,51.34-.34,77,.17,20.33.4,40.81,1.64,59.62,10.38,22.7,10.54,39.49,27.13,50,50.3,9.14,20.08,9.52,41.24,9.57,62.46q.24,112.49-.25,225a144.72,144.72,0,0,1-4.05,34.22c-5.52,22-17.72,40-36,54-16.09,12.32-34.23,19.15-54.09,20-31,1.37-62.14,1.43-93.22,2.05-4.86-19.06-6.53-38.55-7.53-58.1-.3-5.86-.05-11.75-.05-17.86A280.21,280.21,0,0,0,343.39,367c20.77-7.88,40.86-17.15,59.4-30.05l-10.27-15.3C357.24,343.84,320,358.74,278,363.86c1.62-40.14,1-79.9,10-119.66H195.38a14,14,0,0,1-.29-2.09c3.26-40,9.4-79.47,23.12-117.5,8.58-23.79,16.1-48,28.79-70,8.75-15.24,17.63-30.4,26.39-45.63C275.06,6,276.44,3,278,0Zm54.87,90v72.56h29.52V90.05Z" transform="translate(-0.15 0.09)"/><path class="cls-3" d="M278,0c-1.51,3-2.89,6-4.56,8.91C264.63,24.16,255.75,39.32,247,54.56c-12.69,22.08-20.21,46.26-28.79,70.05-13.72,38-19.86,77.46-23.12,117.5a14,14,0,0,0,.29,2.09H288c-9.05,39.76-8.39,79.52-10,119.66,42-5.12,79.28-20,114.56-42.22l10.27,15.3c-18.54,12.9-38.63,22.17-59.4,30.05A280.21,280.21,0,0,1,279,382.61c0,6.11-.25,12,.05,17.86,1,19.55,2.67,39,7.53,58.1l-20.7-.16c-2.8-24.49-5.59-49-8.44-74-64.06,1.94-124.3-14.2-180.42-47.29L88.11,322A318.09,318.09,0,0,0,170,356.08a293.46,293.46,0,0,0,87.77,9.69c1.81-34.11,3.6-67.69,5.42-102H173.82c1.39-16.49,2.1-32.2,4.19-47.73,2.45-18.26,4.88-36.68,9.5-54.46,7.59-29.26,15.66-58.52,28.07-86.2,8-17.94,17.14-35.42,26.23-52.86,4-7.74,9.21-14.9,13.86-22.32Z" transform="translate(-0.15 0.09)"/><path class="cls-3" d="M141.58,90.07v72.49H112.12V90.07Z" transform="translate(-0.15 0.09)"/><path class="cls-3" d="M332.82,90.05h29.52v72.56H332.82Z" transform="translate(-0.15 0.09)"/></svg>