<?xml version="1.0" standalone="no"?>
<!DOCTYPE svg PUBLIC "-//W3C//DTD SVG 20010904//EN"
 "http://www.w3.org/TR/2001/REC-SVG-20010904/DTD/svg10.dtd">
<svg version="1.0" xmlns="http://www.w3.org/2000/svg"
 width="1000.000000pt" height="1000.000000pt" viewBox="0 0 1000.000000 1000.000000"
 preserveAspectRatio="xMidYMid meet">
<metadata>
Created by potrace 1.11, written by Peter Selinger 2001-2013
</metadata>
<g transform="translate(0.000000,1000.000000) scale(0.100000,-0.100000)"
fill="#000000" stroke="none">
<path d="M4738 9995 c-1 -1 -52 -6 -113 -9 -60 -4 -119 -9 -130 -11 -11 -2
-47 -7 -80 -10 -33 -3 -71 -7 -84 -10 -14 -2 -45 -7 -70 -10 -25 -3 -57 -7
-71 -10 -14 -3 -50 -9 -80 -15 -93 -16 -103 -18 -180 -35 -41 -10 -91 -21
-110 -25 -107 -22 -408 -115 -570 -175 -485 -181 -1039 -499 -1404 -805 -262
-220 -472 -425 -636 -620 -25 -29 -49 -58 -55 -64 -5 -6 -35 -42 -66 -81 -361
-454 -646 -978 -829 -1525 -51 -153 -120 -394 -134 -470 -2 -14 -9 -45 -15
-70 -10 -46 -22 -104 -26 -130 -1 -8 -5 -32 -10 -53 -4 -21 -5 -40 -3 -42 3
-3 56 13 119 34 63 22 157 52 209 66 52 15 100 31 106 36 6 5 13 7 16 4 5 -5
116 19 148 32 8 3 18 5 22 5 4 -1 39 5 78 13 38 8 84 17 102 20 18 3 44 7 58
10 14 3 43 7 65 10 22 2 49 6 60 9 11 2 54 7 95 11 41 4 89 9 105 10 208 23
632 23 915 0 51 -4 171 -16 200 -20 14 -2 50 -6 80 -10 149 -18 518 -87 542
-101 4 -3 8 28 8 68 1 40 2 341 3 668 l2 595 815 -1 c721 0 1050 -5 1115 -18
11 -2 47 -7 80 -10 54 -6 94 -12 150 -22 104 -19 183 -37 250 -55 44 -11 85
-22 90 -24 6 -1 17 -5 25 -8 8 -3 47 -15 85 -28 39 -12 75 -24 80 -28 6 -3 12
-6 15 -7 9 -1 104 -45 142 -64 20 -10 39 -16 42 -13 3 4 6 1 6 -6 0 -7 5 -9
10 -6 6 3 10 2 10 -2 0 -5 20 -17 45 -28 25 -11 45 -24 45 -29 0 -5 3 -7 6 -3
3 3 11 2 18 -4 23 -19 86 -58 86 -53 0 2 10 -4 22 -16 12 -11 28 -20 35 -20 7
0 13 -4 13 -8 0 -5 12 -15 28 -23 15 -8 35 -22 45 -33 9 -10 17 -17 17 -13 0
5 44 -30 81 -65 11 -10 19 -16 19 -14 0 4 55 -45 120 -108 41 -39 123 -130
151 -167 15 -18 36 -45 48 -59 29 -35 32 -40 66 -90 17 -25 33 -46 38 -48 4
-2 7 -8 7 -13 0 -11 71 -121 85 -131 7 -5 7 -8 0 -8 -7 0 -7 -3 0 -8 22 -16
199 -387 185 -387 -1 0 10 -31 25 -70 15 -38 28 -77 30 -85 3 -8 18 -64 35
-125 31 -112 65 -268 75 -340 3 -22 10 -62 15 -90 6 -27 11 -66 12 -85 3 -55
-9 -56 143 5 24 10 11 5 170 55 72 22 139 42 150 45 156 36 178 41 265 54 64
10 89 13 240 31 75 8 589 5 645 -4 17 -3 53 -7 80 -11 28 -3 61 -7 75 -10 14
-2 43 -6 65 -10 22 -3 65 -10 95 -15 30 -5 70 -12 89 -15 19 -3 37 -7 40 -9 3
-2 28 -7 55 -10 27 -4 53 -9 56 -11 4 -2 22 -7 41 -10 19 -3 42 -8 51 -11 9
-3 27 -7 40 -10 25 -6 26 -6 83 -22 22 -6 51 -13 65 -16 14 -2 36 -9 50 -14
14 -5 27 -10 30 -10 3 0 23 -5 45 -11 22 -6 42 -10 45 -10 3 0 22 -7 42 -15
74 -31 70 -48 64 261 -3 153 -7 287 -10 298 -2 11 -7 56 -11 100 -8 98 -11
125 -19 162 -3 15 -8 53 -11 83 -3 30 -8 62 -10 70 -2 8 -6 32 -9 53 -9 57
-34 178 -62 297 -14 58 -27 112 -29 120 -2 8 -20 69 -39 135 -20 66 -38 127
-41 135 -59 219 -295 735 -461 1010 -119 198 -267 413 -367 536 -315 385 -593
655 -944 917 -329 245 -760 486 -1123 628 -74 28 -148 58 -165 65 -94 39 -515
160 -624 179 -17 3 -59 12 -93 20 -94 21 -342 57 -488 71 -41 4 -91 9 -110 11
-43 5 -637 13 -642 8z"/>
<path d="M4010 5951 l0 -290 23 -7 c12 -5 24 -9 27 -9 6 -2 31 -11 100 -38 30
-12 57 -22 60 -23 3 0 16 -5 30 -11 14 -6 61 -25 105 -42 44 -17 92 -38 107
-47 15 -8 30 -15 33 -14 3 0 19 -7 35 -15 16 -8 32 -15 35 -16 9 0 160 -66
237 -104 25 -13 49 -21 52 -18 3 4 6 1 6 -5 0 -7 3 -11 8 -10 4 1 57 -23 118
-54 61 -31 140 -67 175 -81 35 -14 73 -28 84 -32 11 -5 22 -9 25 -10 3 -1 18
-7 33 -13 16 -7 30 -12 32 -12 2 0 16 -5 32 -12 15 -6 30 -12 33 -13 3 -1 19
-7 35 -14 17 -6 44 -16 60 -22 17 -6 39 -15 50 -19 31 -13 119 -45 128 -46 4
-1 9 -3 12 -4 3 -1 8 -3 13 -4 4 -1 39 -13 77 -28 235 -88 460 -168 473 -168
2 0 1 20 -2 45 -3 25 -9 66 -12 93 -6 51 -53 272 -61 284 -2 5 -6 16 -8 25 -2
10 -9 32 -16 48 -6 17 -13 36 -15 42 -4 23 -87 188 -96 194 -5 3 -9 10 -9 15
1 5 -6 17 -14 27 -8 9 -11 17 -7 17 4 0 3 4 -3 8 -5 4 -17 19 -25 33 -19 34
-50 77 -72 101 -10 10 -18 21 -18 24 0 19 -206 214 -226 214 -7 0 -14 7 -18
15 -3 8 -12 15 -21 15 -8 0 -15 4 -15 8 0 15 -263 157 -309 166 -9 2 -24 6
-33 10 -9 4 -25 9 -35 11 -10 2 -19 4 -20 5 -2 2 -6 3 -10 4 -5 1 -17 5 -28 9
-25 8 -56 14 -180 37 -87 17 -157 19 -542 20 l-443 0 0 -289z"/>
<path d="M1398 5575 c-2 -1 -44 -6 -94 -9 -49 -4 -99 -8 -110 -10 -16 -3 -94
-12 -179 -21 -40 -5 -218 -36 -263 -46 -26 -6 -56 -12 -67 -15 -63 -12 -90
-19 -190 -45 -142 -38 -409 -126 -457 -150 l-36 -19 3 -302 c3 -167 6 -323 9
-348 9 -97 17 -176 21 -200 2 -14 7 -50 10 -80 7 -66 22 -158 35 -220 5 -25
12 -61 15 -80 10 -61 54 -249 81 -344 14 -50 27 -101 30 -113 10 -48 117 -349
129 -361 11 -12 29 -18 115 -37 8 -2 53 -12 100 -23 47 -11 99 -23 115 -25 17
-3 71 -12 120 -21 50 -8 106 -18 125 -20 156 -21 198 -26 257 -31 38 -4 79 -8
92 -10 14 -3 75 -7 135 -11 61 -3 129 -7 151 -10 50 -5 624 -5 685 0 25 2 97
7 160 10 63 4 131 8 150 11 19 2 71 6 115 10 44 3 91 8 105 10 31 4 97 12 175
21 33 3 61 8 63 9 2 2 3 529 3 1172 l0 1168 -33 7 c-247 53 -576 101 -883 127
-85 8 -680 13 -687 6z"/>
<path d="M4010 4210 c0 -506 3 -920 8 -920 4 0 48 12 97 25 50 14 101 28 114
31 14 3 28 7 33 10 4 3 18 7 30 9 20 4 166 50 198 62 8 4 18 7 23 8 4 2 8 3
10 5 1 1 9 3 17 5 32 7 146 48 158 58 6 5 12 7 12 3 0 -4 13 0 29 8 16 9 31
12 35 9 3 -4 6 -1 6 5 0 7 3 11 8 10 4 -1 21 3 37 8 17 6 33 12 37 13 4 1 29
11 55 22 90 39 98 42 106 41 4 -1 7 2 7 8 0 5 6 10 14 10 19 0 159 62 168 75
4 5 8 7 8 3 0 -4 42 14 93 39 50 26 94 48 97 49 3 1 15 5 28 9 12 4 22 11 22
16 0 5 3 9 8 8 15 -2 52 14 52 22 0 5 3 8 8 7 8 -1 45 13 52 21 3 4 29 17 58
30 28 14 52 29 52 34 0 6 3 8 6 4 3 -3 24 5 45 19 21 13 40 24 43 24 2 0 48
25 102 56 55 31 119 68 144 82 25 14 68 40 96 57 28 18 60 36 72 39 12 4 22
11 22 16 0 5 -66 30 -147 56 -142 46 -373 125 -478 164 -27 10 -99 37 -160 60
-60 23 -114 43 -120 44 -5 2 -23 9 -40 15 -16 7 -34 14 -40 15 -5 1 -20 8 -32
14 -13 7 -23 10 -23 7 0 -3 -11 2 -25 11 -14 9 -25 13 -25 10 0 -4 -10 0 -23
9 -13 8 -27 12 -30 8 -4 -3 -7 -1 -7 6 0 7 -4 9 -10 6 -5 -3 -10 -1 -10 6 0 7
-3 10 -6 6 -4 -3 -13 1 -21 9 -8 8 -19 12 -24 9 -5 -4 -9 -2 -9 3 0 10 -58 36
-72 33 -5 0 -8 4 -8 9 0 5 -3 9 -7 8 -5 -1 -32 10 -60 24 -29 15 -53 25 -53
22 0 -2 -18 7 -40 21 -22 14 -40 23 -40 21 0 -2 -32 11 -70 30 -39 19 -75 34
-79 34 -5 0 -22 7 -38 15 -58 29 -142 65 -155 65 -8 0 -18 4 -23 9 -9 8 -318
131 -330 131 -3 0 -5 -414 -5 -920z"/>
<path d="M8310 4457 c-3 -3 -41 -8 -85 -11 -44 -4 -91 -9 -105 -11 -14 -2 -43
-6 -65 -8 -73 -10 -120 -18 -155 -27 -19 -5 -46 -11 -60 -14 -14 -3 -36 -8
-50 -11 -14 -4 -34 -8 -45 -9 -11 -2 -20 -4 -20 -6 0 -1 -13 -4 -30 -6 -16 -3
-35 -10 -42 -16 -7 -6 -13 -8 -13 -4 0 3 -16 0 -35 -8 -19 -8 -35 -13 -35 -10
0 2 -13 -2 -30 -11 -16 -8 -33 -15 -37 -15 -15 0 -78 -23 -90 -33 -7 -5 -13
-6 -13 -3 0 4 -10 1 -22 -6 -13 -6 -28 -13 -34 -14 -6 -1 -33 -12 -60 -24 -27
-13 -55 -24 -62 -26 -24 -5 -347 -166 -353 -176 -3 -5 -10 -9 -15 -9 -7 0
-159 -85 -407 -228 -23 -13 -44 -28 -45 -33 -2 -4 -7 -6 -12 -3 -4 3 -13 -2
-20 -10 -7 -8 -18 -15 -25 -15 -8 0 -15 -3 -17 -7 -1 -5 -21 -17 -42 -28 -22
-11 -45 -24 -51 -30 -6 -5 -35 -23 -65 -39 -30 -16 -57 -32 -60 -35 -5 -6 -57
-35 -97 -55 -13 -6 -23 -14 -23 -18 0 -5 -6 -8 -14 -8 -8 0 -22 -7 -30 -16 -9
-8 -16 -13 -16 -9 0 3 -13 -3 -29 -14 -16 -12 -34 -21 -40 -21 -6 0 -11 -4
-11 -8 0 -4 -16 -14 -35 -21 -19 -7 -35 -17 -35 -22 0 -5 -3 -8 -7 -7 -9 2
-115 -51 -123 -61 -3 -3 -12 -7 -20 -9 -8 -2 -16 -8 -18 -13 -2 -5 -12 -9 -23
-9 -10 0 -19 -4 -19 -10 0 -5 -6 -10 -12 -10 -7 0 -26 -7 -43 -16 -78 -43
-171 -87 -177 -86 -5 1 -8 -2 -8 -8 0 -6 -3 -9 -7 -8 -5 1 -25 -6 -46 -15 -20
-9 -38 -15 -40 -14 -1 1 -17 -8 -34 -21 -18 -13 -33 -21 -33 -17 0 3 -12 -1
-27 -9 -30 -17 -102 -46 -106 -44 -1 1 -15 -5 -32 -14 -30 -16 -165 -73 -175
-73 -3 0 -39 -14 -80 -30 -41 -16 -77 -30 -80 -30 -11 -2 -56 -17 -75 -25 -11
-5 -58 -20 -105 -35 -47 -15 -92 -29 -100 -32 -8 -3 -19 -7 -25 -9 -5 -1 -82
-23 -169 -48 -88 -26 -173 -49 -189 -52 -17 -2 -33 -7 -37 -9 -3 -2 -17 -6
-31 -9 -13 -3 -33 -7 -44 -10 -11 -2 -54 -12 -95 -21 -41 -9 -84 -18 -95 -21
-11 -3 -31 -7 -45 -10 -14 -2 -36 -7 -50 -10 -14 -3 -36 -8 -50 -10 -22 -4
-149 -27 -205 -38 -11 -2 -42 -7 -68 -10 -27 -4 -56 -9 -65 -10 -17 -3 -87
-13 -152 -22 -19 -3 -46 -7 -60 -9 -14 -2 -52 -7 -85 -11 -33 -3 -68 -8 -77
-9 -9 -2 -49 -6 -90 -10 -40 -3 -84 -8 -98 -10 -14 -2 -68 -7 -120 -11 -52 -3
-111 -8 -130 -11 -68 -9 -867 -11 -970 -3 -58 5 -141 12 -185 15 -44 4 -96 8
-115 11 -83 9 -127 15 -155 19 -16 3 -48 7 -70 10 -67 9 -219 36 -239 42 -17
5 -16 0 9 -43 374 -645 934 -1235 1563 -1648 298 -195 533 -317 937 -487 160
-67 533 -179 745 -224 70 -15 283 -54 315 -58 22 -3 76 -10 120 -16 224 -29
337 -36 630 -36 228 0 433 8 510 20 17 3 50 7 75 9 88 8 157 18 290 43 74 13
149 27 165 29 17 3 107 25 200 49 647 164 1247 453 1785 861 137 104 148 113
255 207 389 339 737 750 993 1172 216 357 406 779 515 1145 25 84 74 266 82
305 3 11 11 49 19 85 13 55 56 276 56 285 0 4 -85 33 -116 40 -10 2 -68 18
-129 35 -60 17 -125 33 -144 36 -19 3 -45 10 -58 15 -13 5 -23 7 -23 4 0 -2
-21 2 -47 10 -27 7 -66 16 -88 20 -80 14 -91 16 -170 30 -44 8 -100 16 -125
19 -92 12 -136 18 -160 23 -31 6 -564 15 -570 10z"/>
</g>
</svg>
